<?xml version="1.0" encoding="UTF-8"?>
<svg width="272px" height="295px" viewBox="0 0 272 295" version="1.1" xmlns="http://www.w3.org/2000/svg" xmlns:xlink="http://www.w3.org/1999/xlink">
    <!-- Generator: Sketch 48.2 (47327) - http://www.bohemiancoding.com/sketch -->
    <title>bla</title>
    <desc>Created with Sketch.</desc>
    <defs>
        <polygon id="path-1" points="0 0 271 0 271 17 0 17"></polygon>
        <path d="M9.035156,16.183594 L267.703125,16.390625 C267.703125,16.390625 270.785156,16.390625 270.746094,12.722656 C270.703125,9.058594 267.621094,9.433594 267.621094,9.433594 L262.953125,9.347656 L262.953125,0.972656 L8.535156,0.847656 L8.535156,9.390625 L3.621094,9.433594 C3.621094,9.433594 0.703125,9.140625 0.785156,13.015625 C0.855469,16.222656 3.785156,16.140625 3.785156,16.140625 L9.035156,16.183594 Z" id="path-3"></path>
        <path d="M9.035156,16.183594 L267.703125,16.390625 C267.703125,16.390625 270.785156,16.390625 270.746094,12.722656 C270.703125,9.058594 267.621094,9.433594 267.621094,9.433594 L262.953125,9.347656 L262.953125,0.972656 L8.535156,0.847656 L8.535156,9.390625 L3.621094,9.433594 C3.621094,9.433594 0.703125,9.140625 0.785156,13.015625 C0.855469,16.222656 3.785156,16.140625 3.785156,16.140625 L9.035156,16.183594" id="path-5"></path>
        <linearGradient x1="50.0077234%" y1="99.9960169%" x2="50.0077231%" y2="0.00862980554%" id="linearGradient-7">
            <stop stop-color="#231F20" offset="0%"></stop>
            <stop stop-color="#231F20" offset="25%"></stop>
            <stop stop-color="#231F20" offset="37.5%"></stop>
            <stop stop-color="#231F20" offset="40.625%"></stop>
            <stop stop-color="#231F20" offset="41.4062%"></stop>
            <stop stop-color="#252122" offset="41.7969%"></stop>
            <stop stop-color="#262223" offset="42.1875%"></stop>
            <stop stop-color="#2A2627" offset="42.5781%"></stop>
            <stop stop-color="#2D2A2B" offset="42.9688%"></stop>
            <stop stop-color="#312D2E" offset="43.3594%"></stop>
            <stop stop-color="#343031" offset="43.75%"></stop>
            <stop stop-color="#373434" offset="44.1406%"></stop>
            <stop stop-color="#3A3738" offset="44.5312%"></stop>
            <stop stop-color="#3D3A3B" offset="44.9219%"></stop>
            <stop stop-color="#403D3E" offset="45.3125%"></stop>
            <stop stop-color="#434040" offset="45.7031%"></stop>
            <stop stop-color="#464243" offset="46.0937%"></stop>
            <stop stop-color="#484546" offset="46.4844%"></stop>
            <stop stop-color="#4B4849" offset="46.875%"></stop>
            <stop stop-color="#4E4A4B" offset="47.2656%"></stop>
            <stop stop-color="#504D4E" offset="47.6562%"></stop>
            <stop stop-color="#524F50" offset="48.0469%"></stop>
            <stop stop-color="#555252" offset="48.4375%"></stop>
            <stop stop-color="#575455" offset="48.8281%"></stop>
            <stop stop-color="#595657" offset="49.2188%"></stop>
            <stop stop-color="#5B5859" offset="49.6094%"></stop>
            <stop stop-color="#5D5A5B" offset="50%"></stop>
            <stop stop-color="#5F5C5D" offset="50.3906%"></stop>
            <stop stop-color="#615E5F" offset="50.7812%"></stop>
            <stop stop-color="#636061" offset="51.1719%"></stop>
            <stop stop-color="#656263" offset="51.5625%"></stop>
            <stop stop-color="#676464" offset="51.9531%"></stop>
            <stop stop-color="#686666" offset="52.3438%"></stop>
            <stop stop-color="#6A6768" offset="52.7344%"></stop>
            <stop stop-color="#6B6969" offset="53.125%"></stop>
            <stop stop-color="#6D6A6B" offset="53.5156%"></stop>
            <stop stop-color="#6E6C6D" offset="53.9063%"></stop>
            <stop stop-color="#706D6E" offset="54.2969%"></stop>
            <stop stop-color="#716F6F" offset="54.6875%"></stop>
            <stop stop-color="#737071" offset="55.0781%"></stop>
            <stop stop-color="#747172" offset="55.4688%"></stop>
            <stop stop-color="#757373" offset="55.8594%"></stop>
            <stop stop-color="#767475" offset="56.25%"></stop>
            <stop stop-color="#787576" offset="56.6406%"></stop>
            <stop stop-color="#797677" offset="57.0313%"></stop>
            <stop stop-color="#7A7778" offset="57.4219%"></stop>
            <stop stop-color="#7B7879" offset="57.8125%"></stop>
            <stop stop-color="#7C797A" offset="58.2031%"></stop>
            <stop stop-color="#7D7A7B" offset="58.5938%"></stop>
            <stop stop-color="#7E7B7C" offset="58.9844%"></stop>
            <stop stop-color="#7F7C7D" offset="59.375%"></stop>
            <stop stop-color="#7F7D7E" offset="59.7656%"></stop>
            <stop stop-color="#807E7F" offset="60.1562%"></stop>
            <stop stop-color="#817F7F" offset="60.5469%"></stop>
            <stop stop-color="#828080" offset="60.9375%"></stop>
            <stop stop-color="#838081" offset="61.3281%"></stop>
            <stop stop-color="#838182" offset="61.7187%"></stop>
            <stop stop-color="#848282" offset="62.1094%"></stop>
            <stop stop-color="#858283" offset="62.5%"></stop>
            <stop stop-color="#858384" offset="62.8906%"></stop>
            <stop stop-color="#868484" offset="63.2812%"></stop>
            <stop stop-color="#868485" offset="63.6719%"></stop>
            <stop stop-color="#878585" offset="64.0625%"></stop>
            <stop stop-color="#888586" offset="64.4531%"></stop>
            <stop stop-color="#888686" offset="64.8438%"></stop>
            <stop stop-color="#898687" offset="65.2344%"></stop>
            <stop stop-color="#898787" offset="65.625%"></stop>
            <stop stop-color="#898788" offset="66.0156%"></stop>
            <stop stop-color="#8A8888" offset="66.4062%"></stop>
            <stop stop-color="#8A8889" offset="67.1875%"></stop>
            <stop stop-color="#8B8989" offset="67.9688%"></stop>
            <stop stop-color="#8C8A8A" offset="68.75%"></stop>
            <stop stop-color="#8C8A8B" offset="69.5312%"></stop>
            <stop stop-color="#8D8B8B" offset="70.3125%"></stop>
            <stop stop-color="#8D8B8C" offset="71.0938%"></stop>
            <stop stop-color="#8E8C8C" offset="71.875%"></stop>
            <stop stop-color="#8E8C8D" offset="73.4375%"></stop>
            <stop stop-color="#8F8D8E" offset="75%"></stop>
            <stop stop-color="#908E8E" offset="78.125%"></stop>
            <stop stop-color="#908E8F" offset="81.25%"></stop>
            <stop stop-color="#918F8F" offset="87.5%"></stop>
            <stop stop-color="#918F8F" offset="100%"></stop>
        </linearGradient>
    </defs>
    <g id="Page-1" stroke="none" stroke-width="1" fill="none" fill-rule="evenodd">
        <g id="bla" transform="translate(-130.000000, -12.000000)">
            <g id="Clipped" transform="translate(130.000000, 12.000000)">
                <mask id="mask-2" fill="white">
                    <use xlink:href="#path-1"></use>
                </mask>
                <g id="Shape"></g>
                <g mask="url(#mask-2)">
                    <mask id="mask-4" fill="white">
                        <use xlink:href="#path-3"></use>
                    </mask>
                    <g id="Shape"></g>
                    <g mask="url(#mask-4)">
                        <mask id="mask-6" fill="white">
                            <use xlink:href="#path-5"></use>
                        </mask>
                        <g id="Shape"></g>
                        <polygon id="Shape" fill="url(#linearGradient-7)" fill-rule="nonzero" mask="url(#mask-6)" points="0.703125 16.390625 270.785156 16.390625 270.785156 0.847656 0.703125 0.847656"></polygon>
                    </g>
                </g>
            </g>
            <path d="M139.035156,13.0546874 L397.703125,12.8476562 C397.703125,12.8476562 400.785156,12.8476562 400.746094,16.515625 C400.703125,20.1796874 397.621094,19.8046874 397.621094,19.8046874 L392.953125,19.890625 L392.953125,28.265625 L138.535156,28.390625 L138.535156,19.8476562 L133.621094,19.8046874 C133.621094,19.8046874 130.703125,20.0976562 130.785156,16.2226562 C130.855469,13.015625 133.785156,13.0976562 133.785156,13.0976562 L139.035156,13.0546874 Z" id="Shape" stroke="#231F20" transform="translate(265.764960, 20.619141) scale(-1, 1) rotate(-180.000000) translate(-265.764960, -20.619141) "></path>
            <path d="M265,204.265625 L265,25.265625" id="Shape" stroke="#231F20" stroke-width="2.5" transform="translate(266.250000, 114.765625) scale(-1, 1) rotate(-180.000000) translate(-266.250000, -114.765625) "></path>
            <path d="M161.283594,204 L161.283594,25" id="Shape" stroke="#231F20" stroke-width="2.5" transform="translate(162.533594, 114.500000) scale(-1, 1) rotate(-180.000000) translate(-162.533594, -114.500000) "></path>
            <path d="M369,204.265625 L369,25.265625" id="Shape" stroke="#231F20" stroke-width="2.5" transform="translate(370.250000, 114.765625) scale(-1, 1) rotate(-180.000000) translate(-370.250000, -114.765625) "></path>
            <path d="M157.871094,205.140625 C157.871094,205.140625 160.308594,205.453125 161.308594,205.453125 C162.308594,205.453125 164.433594,205.078125 164.433594,205.078125 L164.433594,257.515625 L157.808594,257.515625 L157.871094,205.140625" id="Shape" fill="#656263" fill-rule="nonzero"></path>
            <path d="M157.871094,257.453125 C157.871094,257.453125 160.308594,257.140625 161.308594,257.140625 C162.308594,257.140625 164.433594,257.515625 164.433594,257.515625 L164.433594,205.078125 L157.808594,205.078125 L157.871094,257.453125 Z" id="Shape" stroke="#231F20" transform="translate(161.121094, 231.296875) scale(-1, 1) rotate(-180.000000) translate(-161.121094, -231.296875) "></path>
            <path d="M261.871094,205.140625 C261.871094,205.140625 264.308594,205.453125 265.308594,205.453125 C266.308594,205.453125 268.433594,205.078125 268.433594,205.078125 L268.433594,257.515625 L261.808594,257.515625 L261.871094,205.140625" id="Shape" fill="#656263" fill-rule="nonzero"></path>
            <path d="M261.871094,257.453125 C261.871094,257.453125 264.308594,257.140625 265.308594,257.140625 C266.308594,257.140625 268.433594,257.515625 268.433594,257.515625 L268.433594,205.078125 L261.808594,205.078125 L261.871094,257.453125 Z" id="Shape" stroke="#231F20" transform="translate(265.121094, 231.296875) scale(-1, 1) rotate(-180.000000) translate(-265.121094, -231.296875) "></path>
            <path d="M366.871094,205.140625 C366.871094,205.140625 369.308594,205.453125 370.308594,205.453125 C371.308594,205.453125 373.433594,205.078125 373.433594,205.078125 L373.433594,257.515625 L366.808594,257.515625 L366.871094,205.140625" id="Shape" fill="#656263" fill-rule="nonzero"></path>
            <path d="M366.871094,257.453125 C366.871094,257.453125 369.308594,257.140625 370.308594,257.140625 C371.308594,257.140625 373.433594,257.515625 373.433594,257.515625 L373.433594,205.078125 L366.808594,205.078125 L366.871094,257.453125 Z" id="Shape" stroke="#231F20" transform="translate(370.121094, 231.296875) scale(-1, 1) rotate(-180.000000) translate(-370.121094, -231.296875) "></path>
            <path d="M188.871094,298.890625 C189.199219,296.8125 189.308594,294.796875 189.183594,292.609375 C188.113281,273.871094 173.683594,257.140625 161.183594,257.140625 C148.933594,257.140625 135.578125,272.367188 132.933594,292.640625 C132.746094,294.078125 132.707031,296.628906 132.972656,298.578125 L188.871094,298.890625" id="Shape" fill="#656263" fill-rule="nonzero"></path>
            <path d="M188.871094,257.140625 C189.199219,259.21875 189.308594,261.234375 189.183594,263.421875 C188.113281,282.160156 173.683594,298.890625 161.183594,298.890625 C148.933594,298.890625 135.578125,283.664062 132.933594,263.390625 C132.746094,261.953125 132.707031,259.402344 132.972656,257.453125 L188.871094,257.140625 Z" id="Shape" stroke="#231F20" transform="translate(161.008549, 278.015625) scale(-1, 1) rotate(-180.000000) translate(-161.008549, -278.015625) "></path>
            <path d="M188.933594,298.640625 C188.933594,302.574219 176.425781,305.765625 160.996094,305.765625 C145.566406,305.765625 133.058594,302.574219 133.058594,298.640625 C133.058594,294.707031 145.566406,291.515625 160.996094,291.515625 C176.425781,291.515625 188.933594,294.707031 188.933594,298.640625" id="Shape" fill="#ABAAAA" fill-rule="nonzero"></path>
            <path d="M188.933594,298.640625 C188.933594,294.707031 176.425781,291.515625 160.996094,291.515625 C145.566406,291.515625 133.058594,294.707031 133.058594,298.640625 C133.058594,302.574219 145.566406,305.765625 160.996094,305.765625 C176.425781,305.765625 188.933594,302.574219 188.933594,298.640625 Z" id="Shape" stroke="#231F20" transform="translate(160.996094, 298.640625) scale(-1, 1) rotate(-180.000000) translate(-160.996094, -298.640625) "></path>
            <path d="M170.332031,263.789062 C165.085938,264.195312 166.941406,269.296875 166.941406,269.296875 C166.941406,269.296875 171.996094,269.246094 176.199219,274.230469 C180.402344,279.210938 180.402344,279.210938 180.402344,279.210938 C180.402344,279.210938 174.921875,263.433594 170.332031,263.789062" id="Shape" fill="#FFFFFF" fill-rule="nonzero"></path>
            <path d="M293.105469,298.890625 C293.4375,296.8125 293.546875,294.796875 293.421875,292.609375 C292.351562,273.871094 277.921875,257.140625 265.421875,257.140625 C253.171875,257.140625 239.8125,272.367188 237.171875,292.640625 C236.980469,294.078125 236.941406,296.628906 237.210938,298.578125 L293.105469,298.890625" id="Shape" fill="#656263" fill-rule="nonzero"></path>
            <path d="M293.105469,257.140625 C293.4375,259.21875 293.546875,261.234375 293.421875,263.421875 C292.351563,282.160156 277.921875,298.890625 265.421875,298.890625 C253.171875,298.890625 239.8125,283.664062 237.171875,263.390625 C236.980469,261.953125 236.941406,259.402344 237.210938,257.453125 L293.105469,257.140625 Z" id="Shape" stroke="#231F20" transform="translate(265.245327, 278.015625) scale(-1, 1) rotate(-180.000000) translate(-265.245327, -278.015625) "></path>
            <path d="M293.171875,298.640625 C293.171875,302.574219 280.660156,305.765625 265.230469,305.765625 C249.804688,305.765625 237.296875,302.574219 237.296875,298.640625 C237.296875,294.707031 249.804688,291.515625 265.230469,291.515625 C280.660156,291.515625 293.171875,294.707031 293.171875,298.640625" id="Shape" fill="#ABAAAA" fill-rule="nonzero"></path>
            <path d="M293.171875,298.640625 C293.171875,294.707031 280.660156,291.515625 265.230469,291.515625 C249.804688,291.515625 237.296875,294.707031 237.296875,298.640625 C237.296875,302.574219 249.804688,305.765625 265.230469,305.765625 C280.660156,305.765625 293.171875,302.574219 293.171875,298.640625 Z" id="Shape" stroke="#231F20" transform="translate(265.234375, 298.640625) scale(-1, 1) rotate(-180.000000) translate(-265.234375, -298.640625) "></path>
            <path d="M274.566406,263.789062 C269.324219,264.195312 271.179688,269.296875 271.179688,269.296875 C271.179688,269.296875 276.230469,269.246094 280.4375,274.230469 C284.640625,279.210938 284.640625,279.210938 284.640625,279.210938 C284.640625,279.210938 279.160156,263.433594 274.566406,263.789062" id="Shape" fill="#FFFFFF" fill-rule="nonzero"></path>
            <path d="M397.855469,298.890625 C398.1875,296.8125 398.296875,294.796875 398.171875,292.609375 C397.101562,273.871094 382.671875,257.140625 370.171875,257.140625 C357.921875,257.140625 344.5625,272.367188 341.921875,292.640625 C341.730469,294.078125 341.691406,296.628906 341.960938,298.578125 L397.855469,298.890625" id="Shape" fill="#656263" fill-rule="nonzero"></path>
            <path d="M397.855469,257.140625 C398.1875,259.21875 398.296875,261.234375 398.171875,263.421875 C397.101563,282.160156 382.671875,298.890625 370.171875,298.890625 C357.921875,298.890625 344.5625,283.664062 341.921875,263.390625 C341.730469,261.953125 341.691406,259.402344 341.960938,257.453125 L397.855469,257.140625 Z" id="Shape" stroke="#231F20" transform="translate(369.995327, 278.015625) scale(-1, 1) rotate(-180.000000) translate(-369.995327, -278.015625) "></path>
            <path d="M397.921875,298.640625 C397.921875,302.574219 385.410156,305.765625 369.980469,305.765625 C354.554688,305.765625 342.046875,302.574219 342.046875,298.640625 C342.046875,294.707031 354.554688,291.515625 369.980469,291.515625 C385.410156,291.515625 397.921875,294.707031 397.921875,298.640625" id="Shape" fill="#ABAAAA" fill-rule="nonzero"></path>
            <path d="M397.921875,298.640625 C397.921875,294.707031 385.410156,291.515625 369.980469,291.515625 C354.554688,291.515625 342.046875,294.707031 342.046875,298.640625 C342.046875,302.574219 354.554688,305.765625 369.980469,305.765625 C385.410156,305.765625 397.921875,302.574219 397.921875,298.640625 Z" id="Shape" stroke="#231F20" transform="translate(369.984375, 298.640625) scale(-1, 1) rotate(-180.000000) translate(-369.984375, -298.640625) "></path>
            <path d="M379.316406,263.789062 C374.074219,264.195312 375.929688,269.296875 375.929688,269.296875 C375.929688,269.296875 380.980469,269.246094 385.1875,274.230469 C389.390625,279.210938 389.390625,279.210938 389.390625,279.210938 C389.390625,279.210938 383.910156,263.433594 379.316406,263.789062" id="Shape" fill="#FFFFFF" fill-rule="nonzero"></path>
        </g>
    </g>
</svg>