<?xml version="1.0" encoding="UTF-8"?>
<svg width="100px" height="100px" viewBox="0 0 100 100" version="1.1" xmlns="http://www.w3.org/2000/svg" xmlns:xlink="http://www.w3.org/1999/xlink">
    <!-- Generator: Sketch 42 (36781) - http://www.bohemiancoding.com/sketch -->
    <title>icon</title>
    <desc>Created with Sketch.</desc>
    <defs>
        <rect id="path-1" x="32" y="32" width="36" height="36" rx="3"></rect>
        <mask id="mask-2" maskContentUnits="userSpaceOnUse" maskUnits="objectBoundingBox" x="0" y="0" width="36" height="36" fill="white">
            <use xlink:href="#path-1"></use>
        </mask>
        <rect id="path-3" x="39" y="39" width="22" height="22" rx="2"></rect>
        <mask id="mask-4" maskContentUnits="userSpaceOnUse" maskUnits="objectBoundingBox" x="0" y="0" width="22" height="22" fill="white">
            <use xlink:href="#path-3"></use>
        </mask>
    </defs>
    <g id="pages" stroke="none" stroke-width="1" fill="none" fill-rule="evenodd">
        <g id="homepage" transform="translate(-570.000000, -4446.000000)">
            <g id="features" transform="translate(130.000000, 3656.000000)">
                <g id="list" transform="translate(80.000000, 334.000000)">
                    <g id="line" transform="translate(0.000000, 456.000000)">
                        <g id="item" transform="translate(360.000000, 0.000000)">
                            <g id="icon">
                                <rect id="bg" fill="#F4FDFB" x="0" y="0" width="100" height="100" rx="25"></rect>
                                <use id="bg" stroke="#2DDBAD" mask="url(#mask-2)" stroke-width="4" xlink:href="#path-1"></use>
                                <rect id="bg" fill-opacity="0.3" fill="#2DDBAD" x="39" y="26" width="2" height="6"></rect>
                                <rect id="bg" fill-opacity="0.3" fill="#2DDBAD" x="68" y="39" width="6" height="2"></rect>
                                <rect id="bg" fill-opacity="0.3" fill="#2DDBAD" x="68" y="59" width="6" height="2"></rect>
                                <rect id="bg" fill-opacity="0.3" fill="#2DDBAD" x="68" y="49" width="6" height="2"></rect>
                                <rect id="bg" fill-opacity="0.3" fill="#2DDBAD" x="26" y="39" width="6" height="2"></rect>
                                <rect id="bg" fill-opacity="0.3" fill="#2DDBAD" x="26" y="59" width="6" height="2"></rect>
                                <rect id="bg" fill-opacity="0.3" fill="#2DDBAD" x="26" y="49" width="6" height="2"></rect>
                                <rect id="bg" fill-opacity="0.3" fill="#2DDBAD" x="59" y="26" width="2" height="6"></rect>
                                <rect id="bg" fill-opacity="0.3" fill="#2DDBAD" x="49" y="26" width="2" height="6"></rect>
                                <rect id="bg" fill-opacity="0.3" fill="#2DDBAD" x="39" y="68" width="2" height="6"></rect>
                                <rect id="bg" fill-opacity="0.3" fill="#2DDBAD" x="59" y="68" width="2" height="6"></rect>
                                <rect id="bg" fill-opacity="0.3" fill="#2DDBAD" x="49" y="68" width="2" height="6"></rect>
                                <use id="bg" stroke="#2DDBAD" mask="url(#mask-4)" stroke-width="4" xlink:href="#path-3"></use>
                                <path d="M55.9977795,49.9475667 L55.9963917,49.8981693 C55.9952815,49.8601066 55.96475,49.8300204 55.9270019,49.8300204 L53.6945922,49.8300204 C53.6111856,49.8300204 53.5431836,49.7614516 53.5431836,49.67735 L53.5431836,49.0623306 C53.5431836,48.7357196 53.279641,48.4698409 52.9557293,48.4698409 C52.63154,48.4698409 52.3678586,48.7357196 52.3678586,49.0623306 L52.3678586,51.678717 C52.3678586,51.7626787 52.3001342,51.8312474 52.2168664,51.8312474 C52.133321,51.8312474 52.065319,51.7626787 52.065319,51.678717 L52.065319,47.5612354 C52.065319,47.2346244 51.8019152,46.9690255 51.478281,46.9690255 C51.1540917,46.9690255 50.8902715,47.2346244 50.8902715,47.5612354 L50.8902715,52.6791206 C50.8902715,52.7632222 50.8225471,52.8319309 50.7392793,52.8319309 C50.6555951,52.8319309 50.5875931,52.7632222 50.5875931,52.6791206 L50.5875931,45.5601483 C50.5875931,45.2335373 50.3243281,44.9675186 50.0004163,44.9675186 C49.6760883,44.9675186 49.4124069,45.2335373 49.4124069,45.5601483 L49.4124069,54.4802389 C49.4124069,54.5643406 49.34496,54.6327693 49.2614146,54.6327693 C49.1778693,54.6327693 49.1098672,54.5643406 49.1098672,54.4802389 L49.1098672,47.5612354 C49.1098672,47.2346244 48.8464634,46.9690255 48.5225517,46.9690255 C48.1983624,46.9690255 47.9345423,47.2346244 47.9345423,47.5612354 L47.9345423,51.97888 C47.9345423,52.0627018 47.8670953,52.1314105 47.7839663,52.1314105 C47.700421,52.1314105 47.6324189,52.0627018 47.6324189,51.97888 L47.6324189,49.0623306 C47.6324189,48.7357196 47.3688763,48.4698409 47.0449646,48.4698409 C46.7207753,48.4698409 46.457094,48.7357196 46.457094,49.0623306 L46.457094,49.67735 C46.457094,49.7614516 46.389647,49.8300204 46.3061017,49.8300204 L44.4425683,49.8300204 C44.558033,46.8511993 47.0360827,44.4400992 50.0001388,44.4400992 C52.3537031,44.4400992 54.4625989,45.9462321 55.2472591,48.1880094 C55.2569737,48.2158567 55.2833418,48.2347481 55.3129019,48.2347481 L55.6269603,48.2347481 L55.6286256,48.2347481 L55.6297359,48.2347481 C55.6679003,48.2347481 55.6991257,48.2032625 55.6991257,48.16478 C55.6991257,48.1500867 55.6946847,48.136373 55.6869131,48.1251781 C54.8636721,45.6568442 52.5806079,44 50.0001388,44 C46.6914928,44 44,46.7140618 44,50.0501399 C44,50.0842844 44.0011102,50.1184288 44.0023593,50.1522933 L44.0037471,50.2018307 C44.0045797,50.2397534 44.0355276,50.2701196 44.0731369,50.2701196 L46.3061017,50.2701196 C46.6300134,50.2701196 46.893556,50.0042409 46.893556,49.67735 L46.893556,49.0623306 C46.893556,48.9783689 46.961558,48.91008 47.0449646,48.91008 C47.1282324,48.91008 47.1959569,48.9783689 47.1959569,49.0623306 L47.1959569,51.97888 C47.1959569,52.305491 47.459777,52.5713698 47.7839663,52.5713698 C48.1078781,52.5713698 48.3712819,52.305491 48.3712819,51.97888 L48.3712819,47.5612354 C48.3712819,47.4774136 48.4390063,47.4091248 48.5225517,47.4091248 C48.6059583,47.4091248 48.673544,47.4774136 48.673544,47.5612354 L48.673544,54.4802389 C48.673544,54.8071298 48.9372253,55.0730085 49.2614146,55.0730085 C49.5853264,55.0730085 49.8487302,54.8071298 49.8487302,54.4802389 L49.8487302,45.5601483 C49.8487302,45.4761866 49.9170098,45.4078977 50.0004163,45.4078977 C50.0839617,45.4078977 50.1514086,45.4761866 50.1514086,45.5601483 L50.1514086,52.6791206 C50.1514086,53.0060115 50.4152288,53.2718902 50.7392793,53.2718902 C51.0629134,53.2718902 51.326456,53.0060115 51.326456,52.6791206 L51.326456,47.5612354 C51.326456,47.4774136 51.3944581,47.4091248 51.478281,47.4091248 C51.56141,47.4091248 51.6289957,47.4774136 51.6289957,47.5612354 L51.6289957,51.678717 C51.6289957,52.005328 51.8926771,52.2713466 52.2168664,52.2713466 C52.5407781,52.2713466 52.8041819,52.005328 52.8041819,51.678717 L52.8041819,49.0623306 C52.8041819,48.9783689 52.8723227,48.91008 52.9557293,48.91008 C53.0389971,48.91008 53.1067216,48.9783689 53.1067216,49.0623306 L53.1067216,49.67735 C53.1067216,50.0042409 53.3704029,50.2701196 53.6945922,50.2701196 L55.5575704,50.2701196 C55.4421058,53.2486608 52.9639173,55.6599008 50.0001388,55.6599008 C47.6461581,55.6599008 45.5376787,54.1536279 44.7530185,51.9121305 C44.7431651,51.8840033 44.7169357,51.8653918 44.6873757,51.8653918 L44.372901,51.8653918 C44.3506962,51.8653918 44.3298793,51.876027 44.316834,51.8943586 C44.3037887,51.9126902 44.3000416,51.9361995 44.307397,51.9574698 C45.1259194,54.4351795 47.4137022,56.0998601 50.0001388,56.0998601 C53.3083684,56.0998601 56,53.3859382 56,50.0501399 C56,50.0157156 55.9988898,49.9817112 55.9977795,49.9475667" id="Fill-1" stroke="#2DDBAD" stroke-width="0.5" fill="#2DDBAD"></path>
                            </g>
                        </g>
                    </g>
                </g>
            </g>
        </g>
    </g>
</svg>