<svg xmlns="http://www.w3.org/2000/svg" viewBox="0 0 1196 307">
  <g fill="none" fill-rule="evenodd" stroke="#333333">
    <path d="M28.21 196.76C201.01 141.92 366.06 38.2 545.16 6.7c160.86-28.3 265.46 46.62 412.99 95.5 67.32 22.3 142.82 49.32 199.3-8.38"
    />
    <path d="M25.66 192.5C195.4 139.1 359.1 40.58 535.25 13.25c163.2-25.31 265.44 54.71 413.7 105.66 72.27 24.83 156.68 45.22 211.9-19.99"
    />
    <path d="M23.1 188.25C189.79 136.26 352.2 43.06 525.35 19.8c165.57-22.25 265.4 62.93 414.4 115.82 77.21 27.4 170.54 41.12 224.51-31.6"
    />
    <path d="M20.55 184c163.6-50.57 324.76-138.32 494.88-157.65C683.4 7.26 780.75 97.59 930.55 152.33c82.13 30 184.39 37.01 237.1-43.2"
    />
    <path d="M18 179.74C178.54 130.6 338.46 48.41 505.52 32.9c170.4-15.82 265.21 79.64 415.83 136.15 87.04 32.65 198.24 32.91 249.7-54.8"
    />
    <path d="M15.45 175.49C172.92 127.77 331.62 51.26 495.61 39.44c172.83-12.46 265.08 88.09 416.54 146.3 91.93 35.35 212.1 28.82 262.31-66.4"
    />
    <path d="M12.9 171.24c154.4-46.3 311.9-117.02 472.8-125.25 175.29-8.97 264.93 96.6 417.25 156.47 96.82 38.05 225.95 24.7 274.91-78.02"
    />
    <path d="M10.34 166.98C161.68 122.11 317.98 57.3 475.8 52.53c177.74-5.36 264.76 105.17 417.96 166.64 101.69 40.8 239.8 20.6 287.52-89.62"
    />
    <path d="M7.8 162.73C156.05 119.28 311.14 60.48 465.88 59.08c180.19-1.62 264.56 113.76 418.66 176.8 106.54 43.59 253.66 16.5 300.12-101.23"
    />
    <path d="M5.24 158.47c145.2-42.02 299.08-94.71 450.74-92.84 182.63 2.25 264.36 122.39 419.37 186.96 111.39 46.4 267.52 12.4 312.72-112.83"
    />
    <path d="M2.69 154.22c142.14-40.6 294.78-87.08 443.38-82.04 185.06 6.27 264.05 131.26 420.08 197.12 116.14 49.4 281.37 8.3 325.32-124.44"
    />
    <path d="M.14 149.97C139.2 110.79 290.59 70.6 436.16 78.72c187.45 10.45 263.9 139.73 420.79 207.29 121.03 52.12 295.23 4.19 337.93-136.04"
    />
  </g>
</svg>