<?xml version="1.0" encoding="UTF-8"?>
<svg width="100px" height="100px" viewBox="0 0 100 100" version="1.1" xmlns="http://www.w3.org/2000/svg" xmlns:xlink="http://www.w3.org/1999/xlink">
    <!-- Generator: Sketch 42 (36781) - http://www.bohemiancoding.com/sketch -->
    <title>icon</title>
    <desc>Created with Sketch.</desc>
    <defs>
        <rect id="path-1" x="-2.274e-13" y="0" width="64" height="62" rx="2"></rect>
        <mask id="mask-2" maskContentUnits="userSpaceOnUse" maskUnits="objectBoundingBox" x="0" y="0" width="64" height="62" fill="white">
            <use xlink:href="#path-1"></use>
        </mask>
        <rect id="path-3" x="56" y="37" width="26" height="36" rx="13"></rect>
        <mask id="mask-4" maskContentUnits="userSpaceOnUse" maskUnits="objectBoundingBox" x="0" y="0" width="26" height="36" fill="white">
            <use xlink:href="#path-3"></use>
        </mask>
        <rect id="path-5" x="52" y="54" width="34" height="26" rx="3"></rect>
        <mask id="mask-6" maskContentUnits="userSpaceOnUse" maskUnits="objectBoundingBox" x="0" y="0" width="34" height="26" fill="white">
            <use xlink:href="#path-5"></use>
        </mask>
    </defs>
    <g id="pages" stroke="none" stroke-width="1" fill="none" fill-rule="evenodd">
        <g id="homepage" transform="translate(-929.000000, -3990.000000)">
            <g id="features" transform="translate(130.000000, 3656.000000)">
                <g id="list" transform="translate(80.000000, 334.000000)">
                    <g id="line">
                        <g id="item" transform="translate(719.000000, 0.000000)">
                            <g id="icon">
                                <rect id="bg" fill="#F4FDFB" x="0" y="0" width="100" height="100" rx="25"></rect>
                                <g transform="translate(18.000000, 18.000000)">
                                    <use id="bg" stroke="#2DDBAD" mask="url(#mask-2)" stroke-width="4" fill="#F4FDFB" xlink:href="#path-1"></use>
                                    <path d="M58,56 C57.4477153,56 57,55.5522847 57,55 C57,54.4477153 57.4477153,54 58,54 C58.5522847,54 59,54.4477153 59,55 C59,55.5522847 58.5522847,56 58,56 Z M54,56 C53.4477153,56 53,55.5522847 53,55 C53,54.4477153 53.4477153,54 54,54 C54.5522847,54 55,54.4477153 55,55 C55,55.5522847 54.5522847,56 54,56 Z M6.5,55 C6.22385763,55 6,54.7761424 6,54.5 C6,54.2238576 6.22385763,54 6.5,54 C6.77614237,54 7,54.2238576 7,54.5 C7,54.7761424 6.77614237,55 6.5,55 Z M8.5,56 C8.22385763,56 8,55.7761424 8,55.5 C8,55.2238576 8.22385763,55 8.5,55 C8.77614237,55 9,55.2238576 9,55.5 C9,55.7761424 8.77614237,56 8.5,56 Z M10.5,55 C10.2238576,55 10,54.7761424 10,54.5 C10,54.2238576 10.2238576,54 10.5,54 C10.7761424,54 11,54.2238576 11,54.5 C11,54.7761424 10.7761424,55 10.5,55 Z M12.5,56 C12.2238576,56 12,55.7761424 12,55.5 C12,55.2238576 12.2238576,55 12.5,55 C12.7761424,55 13,55.2238576 13,55.5 C13,55.7761424 12.7761424,56 12.5,56 Z M14.5,55 C14.2238576,55 14,54.7761424 14,54.5 C14,54.2238576 14.2238576,54 14.5,54 C14.7761424,54 15,54.2238576 15,54.5 C15,54.7761424 14.7761424,55 14.5,55 Z" id="Combined-Shape" fill="#2DDBAD"></path>
                                    <path d="M58,44 C57.4477153,44 57,43.5522847 57,43 C57,42.4477153 57.4477153,42 58,42 C58.5522847,42 59,42.4477153 59,43 C59,43.5522847 58.5522847,44 58,44 Z M54,44 C53.4477153,44 53,43.5522847 53,43 C53,42.4477153 53.4477153,42 54,42 C54.5522847,42 55,42.4477153 55,43 C55,43.5522847 54.5522847,44 54,44 Z M6.5,43 C6.22385763,43 6,42.7761424 6,42.5 C6,42.2238576 6.22385763,42 6.5,42 C6.77614237,42 7,42.2238576 7,42.5 C7,42.7761424 6.77614237,43 6.5,43 Z M8.5,44 C8.22385763,44 8,43.7761424 8,43.5 C8,43.2238576 8.22385763,43 8.5,43 C8.77614237,43 9,43.2238576 9,43.5 C9,43.7761424 8.77614237,44 8.5,44 Z M10.5,43 C10.2238576,43 10,42.7761424 10,42.5 C10,42.2238576 10.2238576,42 10.5,42 C10.7761424,42 11,42.2238576 11,42.5 C11,42.7761424 10.7761424,43 10.5,43 Z M12.5,44 C12.2238576,44 12,43.7761424 12,43.5 C12,43.2238576 12.2238576,43 12.5,43 C12.7761424,43 13,43.2238576 13,43.5 C13,43.7761424 12.7761424,44 12.5,44 Z M14.5,43 C14.2238576,43 14,42.7761424 14,42.5 C14,42.2238576 14.2238576,42 14.5,42 C14.7761424,42 15,42.2238576 15,42.5 C15,42.7761424 14.7761424,43 14.5,43 Z" id="Combined-Shape" fill="#2DDBAD"></path>
                                    <path d="M58,32 C57.4477153,32 57,31.5522847 57,31 C57,30.4477153 57.4477153,30 58,30 C58.5522847,30 59,30.4477153 59,31 C59,31.5522847 58.5522847,32 58,32 Z M54,32 C53.4477153,32 53,31.5522847 53,31 C53,30.4477153 53.4477153,30 54,30 C54.5522847,30 55,30.4477153 55,31 C55,31.5522847 54.5522847,32 54,32 Z M6.5,31 C6.22385763,31 6,30.7761424 6,30.5 C6,30.2238576 6.22385763,30 6.5,30 C6.77614237,30 7,30.2238576 7,30.5 C7,30.7761424 6.77614237,31 6.5,31 Z M8.5,32 C8.22385763,32 8,31.7761424 8,31.5 C8,31.2238576 8.22385763,31 8.5,31 C8.77614237,31 9,31.2238576 9,31.5 C9,31.7761424 8.77614237,32 8.5,32 Z M10.5,31 C10.2238576,31 10,30.7761424 10,30.5 C10,30.2238576 10.2238576,30 10.5,30 C10.7761424,30 11,30.2238576 11,30.5 C11,30.7761424 10.7761424,31 10.5,31 Z M12.5,32 C12.2238576,32 12,31.7761424 12,31.5 C12,31.2238576 12.2238576,31 12.5,31 C12.7761424,31 13,31.2238576 13,31.5 C13,31.7761424 12.7761424,32 12.5,32 Z M14.5,31 C14.2238576,31 14,30.7761424 14,30.5 C14,30.2238576 14.2238576,30 14.5,30 C14.7761424,30 15,30.2238576 15,30.5 C15,30.7761424 14.7761424,31 14.5,31 Z" id="Combined-Shape" fill="#2DDBAD"></path>
                                    <path d="M58,20 C57.4477153,20 57,19.5522847 57,19 C57,18.4477153 57.4477153,18 58,18 C58.5522847,18 59,18.4477153 59,19 C59,19.5522847 58.5522847,20 58,20 Z M54,20 C53.4477153,20 53,19.5522847 53,19 C53,18.4477153 53.4477153,18 54,18 C54.5522847,18 55,18.4477153 55,19 C55,19.5522847 54.5522847,20 54,20 Z M6.5,19 C6.22385763,19 6,18.7761424 6,18.5 C6,18.2238576 6.22385763,18 6.5,18 C6.77614237,18 7,18.2238576 7,18.5 C7,18.7761424 6.77614237,19 6.5,19 Z M8.5,20 C8.22385763,20 8,19.7761424 8,19.5 C8,19.2238576 8.22385763,19 8.5,19 C8.77614237,19 9,19.2238576 9,19.5 C9,19.7761424 8.77614237,20 8.5,20 Z M10.5,19 C10.2238576,19 10,18.7761424 10,18.5 C10,18.2238576 10.2238576,18 10.5,18 C10.7761424,18 11,18.2238576 11,18.5 C11,18.7761424 10.7761424,19 10.5,19 Z M12.5,20 C12.2238576,20 12,19.7761424 12,19.5 C12,19.2238576 12.2238576,19 12.5,19 C12.7761424,19 13,19.2238576 13,19.5 C13,19.7761424 12.7761424,20 12.5,20 Z M14.5,19 C14.2238576,19 14,18.7761424 14,18.5 C14,18.2238576 14.2238576,18 14.5,18 C14.7761424,18 15,18.2238576 15,18.5 C15,18.7761424 14.7761424,19 14.5,19 Z" id="Combined-Shape" fill="#2DDBAD"></path>
                                    <path d="M58,8 C57.4477153,8 57,7.55228475 57,7 C57,6.44771525 57.4477153,6 58,6 C58.5522847,6 59,6.44771525 59,7 C59,7.55228475 58.5522847,8 58,8 Z M54,8 C53.4477153,8 53,7.55228475 53,7 C53,6.44771525 53.4477153,6 54,6 C54.5522847,6 55,6.44771525 55,7 C55,7.55228475 54.5522847,8 54,8 Z M6.5,7 C6.22385763,7 6,6.77614237 6,6.5 C6,6.22385763 6.22385763,6 6.5,6 C6.77614237,6 7,6.22385763 7,6.5 C7,6.77614237 6.77614237,7 6.5,7 Z M8.5,8 C8.22385763,8 8,7.77614237 8,7.5 C8,7.22385763 8.22385763,7 8.5,7 C8.77614237,7 9,7.22385763 9,7.5 C9,7.77614237 8.77614237,8 8.5,8 Z M10.5,7 C10.2238576,7 10,6.77614237 10,6.5 C10,6.22385763 10.2238576,6 10.5,6 C10.7761424,6 11,6.22385763 11,6.5 C11,6.77614237 10.7761424,7 10.5,7 Z M12.5,8 C12.2238576,8 12,7.77614237 12,7.5 C12,7.22385763 12.2238576,7 12.5,7 C12.7761424,7 13,7.22385763 13,7.5 C13,7.77614237 12.7761424,8 12.5,8 Z M14.5,7 C14.2238576,7 14,6.77614237 14,6.5 C14,6.22385763 14.2238576,6 14.5,6 C14.7761424,6 15,6.22385763 15,6.5 C15,6.77614237 14.7761424,7 14.5,7 Z" id="Combined-Shape" fill="#2DDBAD"></path>
                                    <rect id="bg" fill-opacity="0.300000012" fill="#2DDBAD" x="1" y="12" width="63" height="2"></rect>
                                    <rect id="bg" fill-opacity="0.300000012" fill="#2DDBAD" x="1" y="24" width="63" height="2"></rect>
                                    <rect id="bg" fill-opacity="0.300000012" fill="#2DDBAD" x="1" y="36" width="63" height="2"></rect>
                                    <rect id="bg" fill-opacity="0.300000012" fill="#2DDBAD" x="1" y="48" width="63" height="2"></rect>
                                </g>
                                <use id="bg" stroke="#2DDBAD" mask="url(#mask-4)" stroke-width="8" xlink:href="#path-3"></use>
                                <use id="bg" stroke="#2DDBAD" mask="url(#mask-6)" stroke-width="4" fill="#F4FDFB" xlink:href="#path-5"></use>
                                <path d="M68,67.8292943 C66.8348076,67.4174579 66,66.3062188 66,65 C66,63.3431458 67.3431458,62 69,62 C70.6568542,62 72,63.3431458 72,65 C72,66.3062188 71.1651924,67.4174579 70,67.8292943 L70,70 L68,70 L68,67.8292943 Z" id="Combined-Shape" fill="#2DDBAD"></path>
                            </g>
                        </g>
                    </g>
                </g>
            </g>
        </g>
    </g>
</svg>