<?xml version="1.0" encoding="UTF-8"?>
<svg width="100px" height="100px" viewBox="0 0 100 100" version="1.1" xmlns="http://www.w3.org/2000/svg" xmlns:xlink="http://www.w3.org/1999/xlink">
    <!-- Generator: Sketch 42 (36781) - http://www.bohemiancoding.com/sketch -->
    <title>icon</title>
    <desc>Created with Sketch.</desc>
    <defs>
        <rect id="path-1" x="0" y="0" width="66" height="56" rx="3"></rect>
        <mask id="mask-2" maskContentUnits="userSpaceOnUse" maskUnits="objectBoundingBox" x="0" y="0" width="66" height="56" fill="white">
            <use xlink:href="#path-1"></use>
        </mask>
        <circle id="path-3" cx="33" cy="31" r="13"></circle>
        <mask id="mask-4" maskContentUnits="userSpaceOnUse" maskUnits="objectBoundingBox" x="0" y="0" width="26" height="26" fill="white">
            <use xlink:href="#path-3"></use>
        </mask>
        <polygon id="path-5" points="10 31 15.6 25 17 26.5 12.8 31 17 35.5 15.6 37"></polygon>
        <mask id="mask-6" maskContentUnits="userSpaceOnUse" maskUnits="objectBoundingBox" x="0" y="0" width="7" height="12" fill="white">
            <use xlink:href="#path-5"></use>
        </mask>
        <polygon id="path-7" points="49 31 54.6 25 56 26.5 51.8 31 56 35.5 54.6 37"></polygon>
        <mask id="mask-8" maskContentUnits="userSpaceOnUse" maskUnits="objectBoundingBox" x="0" y="0" width="7" height="12" fill="white">
            <use xlink:href="#path-7"></use>
        </mask>
        <rect id="path-9" x="37" y="6" width="34" height="58" rx="6"></rect>
        <mask id="mask-10" maskContentUnits="userSpaceOnUse" maskUnits="objectBoundingBox" x="0" y="0" width="34" height="58" fill="white">
            <use xlink:href="#path-9"></use>
        </mask>
        <circle id="path-11" cx="54" cy="35" r="11"></circle>
        <mask id="mask-12" maskContentUnits="userSpaceOnUse" maskUnits="objectBoundingBox" x="0" y="0" width="22" height="22" fill="white">
            <use xlink:href="#path-11"></use>
        </mask>
    </defs>
    <g id="pages" stroke="none" stroke-width="1" fill="none" fill-rule="evenodd">
        <g id="homepage" transform="translate(-570.000000, -3990.000000)">
            <g id="features" transform="translate(130.000000, 3656.000000)">
                <g id="list" transform="translate(80.000000, 334.000000)">
                    <g id="line">
                        <g id="item" transform="translate(360.000000, 0.000000)">
                            <g id="icon">
                                <rect id="bg" fill="#F4FDFB" x="0" y="0" width="100" height="100" rx="25"></rect>
                                <g id="screens" transform="translate(15.000000, 18.000000)">
                                    <use id="bg" stroke="#2DDBAD" mask="url(#mask-2)" stroke-width="4" xlink:href="#path-1"></use>
                                    <rect id="bg" fill="#2DDBAD" x="2" y="6" width="63" height="2"></rect>
                                    <use id="bg" stroke="#2DDBAD" mask="url(#mask-4)" stroke-width="4" xlink:href="#path-3"></use>
                                    <polygon id="arrow" fill="#2DDBAD" points="38 31 30 36 30 26"></polygon>
                                    <use id="arrow" stroke="#2DDBAD" mask="url(#mask-6)" stroke-width="2" fill="#2DDBAD" xlink:href="#path-5"></use>
                                    <use id="arrow" stroke="#979797" mask="url(#mask-8)" stroke-width="2" fill="#D8D8D8" transform="translate(52.500000, 31.000000) scale(-1, 1) translate(-52.500000, -31.000000) " xlink:href="#path-7"></use>
                                    <use id="bg" stroke="#2DDBAD" mask="url(#mask-10)" stroke-width="4" fill="#F4FDFB" xlink:href="#path-9"></use>
                                    <use id="bg" stroke="#2DDBAD" mask="url(#mask-12)" stroke-width="4" xlink:href="#path-11"></use>
                                    <polygon id="arrow" fill="#2DDBAD" points="58 35 52 39 52 31"></polygon>
                                    <rect id="bg" fill="#2DDBAD" x="38" y="14" width="33" height="2"></rect>
                                    <rect id="bg" fill="#2DDBAD" x="38" y="54" width="33" height="2"></rect>
                                </g>
                            </g>
                        </g>
                    </g>
                </g>
            </g>
        </g>
    </g>
</svg>